<?xml version="1.0" standalone="no"?>
<!DOCTYPE svg PUBLIC "-//W3C//DTD SVG 1.1//EN" "http://www.w3.org/Graphics/SVG/1.1/DTD/svg11.dtd" >
<svg xmlns="http://www.w3.org/2000/svg">
<metadata>
This is a custom SVG webfont generated by Font Squirrel.
Copyright   : From the WSIFONT Collection  Copyright c 1993 WSI  All Rights Reserved  Redistribution strictly prohibited  KeyFonts TM SoftKey Software Products Inc   RWE
</metadata>
<defs>
<font id="InstitutionRegular" horiz-adv-x="645" >
<font-face units-per-em="2048" ascent="1638" descent="-410" />
<missing-glyph horiz-adv-x="335" />
<glyph unicode=" "  horiz-adv-x="335" />
<glyph unicode="&#x09;" horiz-adv-x="335" />
<glyph unicode="&#xa0;" horiz-adv-x="335" />
<glyph unicode="!" horiz-adv-x="536" d="M154 0v106h106v-106h-106zM154 258v1190h106v-1190h-106z" />
<glyph unicode="&#x22;" horiz-adv-x="536" d="M104 1141v307h103v-307h-103zM311 1141v307h105v-307h-105z" />
<glyph unicode="#" horiz-adv-x="751" d="M74 780v94h125l24 218l-119 2v88h129l33 270l94 -8l-28 -262h110l31 270l94 -8l-28 -262h120v-88l-131 -2l-26 -218h127v-94h-135l-31 -266l-88 8l22 258h-108l-37 -266l-94 8l28 258h-112zM299 874h109l24 218h-106z" />
<glyph unicode="$" horiz-adv-x="589" d="M74 467v53h104v-53q0 -43 31 -71.5t76 -28.5q41 0 71.5 26.5t30.5 73.5v76l-313 313v127q0 84 57 145.5t154 61.5q86 0 146.5 -62.5t60.5 -144.5l-3 -55h-102v55q0 31 -32.5 67.5t-69.5 36.5q-39 0 -73 -35.5t-34 -68.5v-76l314 -311v-129q0 -88 -50 -145 q-55 -66 -157 -66q-90 0 -150.5 56.5t-60.5 154.5zM227 0v158h109v-158h-109zM227 1292v156h109v-156h-109z" />
<glyph unicode="%" horiz-adv-x="804" d="M57 1141q0 143 27 213q37 94 129 94q84 0 127 -94q37 -80 37 -213q0 -315 -164 -316q-76 0 -116 82t-40 234zM111 0v221l415 977v250h113v-272l-424 -981v-195h-104zM162 1141q0 -211 51 -211q53 0 53 211q0 203 -53 202q-51 1 -51 -202zM397 309q0 143 33 219 q41 96 133 97q78 0 119 -101q35 -86 35 -215q0 -133 -31 -211q-39 -100 -123 -100q-90 0 -133 102q-33 80 -33 209zM512 309q0 -102 11.5 -152.5t39.5 -50.5q49 0 49 203q0 207 -49 207q-51 0 -51 -207z" />
<glyph unicode="&#x26;" horiz-adv-x="694" d="M104 184v486q0 51 10.5 84.5t53.5 72.5q-31 37 -47.5 73t-16.5 83v258q0 88 55.5 147.5t153.5 59.5h158v-105h-158q-39 0 -71.5 -30.5t-32.5 -71.5v-258q0 -37 31.5 -68.5t72.5 -31.5h103v-107h-103q-37 0 -70.5 -31.5t-33.5 -74.5v-486q0 -39 31.5 -68.5t72.5 -29.5 q39 0 70 26.5t31 71.5v285h215v-107h-105v-178q0 -86 -60.5 -146.5t-150.5 -60.5q-84 0 -141 50q-68 57 -68 157z" />
<glyph unicode="'" horiz-adv-x="325" d="M104 1141v307h103v-307h-103z" />
<glyph unicode="(" horiz-adv-x="497" d="M137 156v1136q0 84 62.5 146.5t152.5 62.5h47v-104h-47q-37 0 -69.5 -31t-32.5 -74v-1136q0 -35 28.5 -68t73.5 -33h47v-110h-47q-86 0 -147 55q-68 62 -68 156z" />
<glyph unicode=")" horiz-adv-x="497" d="M84 1397v104h49q78 0 143 -53q74 -61 74 -156v-1136q0 -90 -62.5 -150.5t-154.5 -60.5h-49v110h49q37 0 71 30t34 71v1136q0 33 -27 66q-33 39 -78 39h-49z" />
<glyph unicode="*" horiz-adv-x="727" d="M104 1094l168 94l-168 100l39 72l168 -98v186h86v-182l168 94l43 -72l-176 -100l168 -96l-47 -74l-156 94v-184h-86v186l-168 -94z" />
<glyph unicode="+" horiz-adv-x="536" d="M84 590v102h121v228h110v-228h121v-102h-121v-225h-110v225h-121z" />
<glyph unicode="," horiz-adv-x="485" d="M61 -78l52 76l-9 2v106h199l-160 -239z" />
<glyph unicode="-" horiz-adv-x="485" d="M104 569v103h265v-103h-265z" />
<glyph unicode="." horiz-adv-x="485" d="M154 0v106h106v-106h-106z" />
<glyph unicode="/" d="M104 0v424l310 620v404h108l2 -422l-315 -623l-2 -403h-103z" />
<glyph unicode="0" horiz-adv-x="665" d="M115 184v1078q0 82 53 141q61 68 158 67q84 0 147.5 -61t63.5 -147v-1078q0 -82 -60.5 -144.5t-150.5 -62.5q-84 0 -147.5 56.5t-63.5 150.5zM223 184q0 -41 31 -69.5t72 -28.5q37 0 67.5 28.5t30.5 69.5v1078q0 33 -28.5 68.5t-69.5 35.5t-72 -35t-31 -69v-1078z" />
<glyph unicode="1" horiz-adv-x="665" d="M147 1313l240 157v-1470h-108v1278l-72 -49z" />
<glyph unicode="2" horiz-adv-x="665" d="M104 1210v52q0 80 59.5 144t151.5 64q88 0 148.5 -60t60.5 -148v-453l-311 -414v-289h311v-106h-420v432l316 416v414q0 35 -33 69.5t-72 34.5q-45 0 -75.5 -35t-30.5 -69v-52h-105z" />
<glyph unicode="3" horiz-adv-x="665" d="M119 184v56h104v-56q0 -35 30 -66.5t77 -31.5q37 0 70.5 32t33.5 66v439q0 33 -34.5 65.5t-69.5 32.5h-111v108h111q37 0 70.5 32t33.5 67v334q0 33 -33.5 68.5t-70.5 35.5q-39 0 -73 -36t-34 -68v-52h-104v52q0 80 58.5 144t152.5 64q90 0 149.5 -61t59.5 -147v-334 q0 -88 -72 -150q72 -72 72 -155v-439q0 -82 -56.5 -144.5t-152.5 -62.5q-88 0 -149.5 59.5t-61.5 147.5z" />
<glyph unicode="4" horiz-adv-x="665" d="M82 465v395l315 588h105v-877h104v-106h-104v-465h-105v465h-315zM186 571h211v648l-211 -377v-271z" />
<glyph unicode="5" horiz-adv-x="665" d="M96 184v56h105v-56q0 -35 29.5 -66.5t76.5 -31.5q37 0 71 29.5t34 68.5v439q0 31 -36 64.5t-69 33.5h-157v727h364v-105h-256v-514h49q82 0 145.5 -59t63.5 -147v-439q0 -82 -56.5 -144.5t-152.5 -62.5q-88 0 -149.5 61.5t-61.5 145.5z" />
<glyph unicode="6" horiz-adv-x="665" d="M115 184v1078q0 82 56 145t155 63q84 0 147.5 -61t63.5 -147v-52h-113v52q0 33 -28.5 68.5t-69.5 35.5t-72 -35t-31 -69v-433h103q98 0 157 -65q53 -57 54 -141v-439q0 -80 -59.5 -143.5t-152 -63.5t-151.5 59.5t-59 147.5zM223 184q0 -41 31 -69.5t72 -28.5 q39 0 68.5 27.5t29.5 70.5v439q0 35 -29.5 66.5t-68.5 31.5h-103v-537z" />
<glyph unicode="7" horiz-adv-x="665" d="M104 1343v105h420v-318l-207 -518v-612h-112v633l215 518v192h-316z" />
<glyph unicode="8" horiz-adv-x="665" d="M121 184v439q0 43 14.5 79.5t50.5 75.5q-66 57 -65 150v334q0 80 58.5 144t152.5 64q84 0 147.5 -61t63.5 -147v-334q0 -37 -19.5 -80t-54.5 -70q74 -72 74 -155v-439q0 -80 -59.5 -143.5t-151.5 -63.5q-88 0 -149.5 59.5t-61.5 147.5zM229 184q0 -37 31 -67.5t72 -30.5 q37 0 67.5 28.5t30.5 69.5v439q0 35 -29.5 66.5t-68.5 31.5t-71 -29.5t-32 -68.5v-439zM229 928q0 -37 31 -68t72 -31q37 0 67.5 29t30.5 70v334q0 33 -28.5 68.5t-69.5 35.5t-72 -35t-31 -69v-334z" />
<glyph unicode="9" horiz-adv-x="665" d="M113 623v639q0 96 58 152t151 56q90 0 149 -57t59 -151v-1067q0 -82 -60 -144.5t-148 -62.5h-99v110h99q41 0 71.5 29t30.5 68v217h-102q-86 0 -144 53q-65 60 -65 158zM217 623q0 -37 31 -70t74 -33h102v742q0 31 -25 63q-31 41 -75 41q-41 0 -74 -35t-33 -69v-639z" />
<glyph unicode=":" horiz-adv-x="485" d="M154 0v106h106v-106h-106zM154 623v102h106v-102h-106z" />
<glyph unicode=";" horiz-adv-x="485" d="M154 -104v210h106v-210h-106zM154 623v102h106v-102h-106z" />
<glyph unicode="&#x3c;" horiz-adv-x="753" d="M51 623l529 526l65 -66l-465 -460l465 -463l-65 -60z" />
<glyph unicode="=" horiz-adv-x="485" d="M104 467v104h265v-104h-265zM104 723v106h265v-106h-265z" />
<glyph unicode="&#x3e;" horiz-adv-x="753" d="M51 160l463 463l-463 460l66 66l528 -526l-528 -523z" />
<glyph unicode="?" horiz-adv-x="751" d="M104 1210v52q0 84 56.5 146t152.5 62q86 0 148.5 -56t62.5 -152v-508l-153 -158v-338h-113v391l156 152v461q0 35 -31 69.5t-70 34.5q-41 0 -72.5 -36t-31.5 -68v-52h-105zM258 0v106h111v-106h-111z" />
<glyph unicode="@" horiz-adv-x="962" d="M104 184v643q0 84 58.5 146.5t150.5 62.5h211v-852q0 -41 31 -69.5t74 -28.5q33 0 65.5 30.5t32.5 67.5v906q0 98 -76 175.5t-180 77.5h-84v105h84q156 0 261.5 -103.5t105.5 -254.5v-906q0 -80 -59.5 -143.5t-149.5 -63.5q-94 0 -158 66q-41 -35 -72.5 -50.5 t-85.5 -15.5q-82 0 -145.5 57.5t-63.5 149.5zM209 184q0 -39 31.5 -68.5t72.5 -29.5q39 0 70 26.5t31 71.5v742h-101q-41 0 -72.5 -30t-31.5 -69v-643z" />
<glyph unicode="A" d="M104 0v1262q0 84 56.5 146t152.5 62q86 0 148.5 -56t62.5 -152v-1262h-110v567h-205v-567h-105zM209 672h205v590q0 31 -31 67.5t-70 36.5t-71.5 -37t-32.5 -67v-590z" />
<glyph unicode="B" d="M104 0v1448h209q84 0 147.5 -57.5t63.5 -149.5v-313q0 -33 -18.5 -80t-50.5 -70q70 -74 69 -155v-418q0 -94 -73 -154q-66 -51 -146 -51h-201zM209 106h104q45 0 73 32t28 67v418q0 39 -30 68.5t-71 29.5h-104v-615zM209 829h104q39 0 70 29t31 70v313q0 41 -27 71.5 t-74 30.5h-104v-514z" />
<glyph unicode="C" horiz-adv-x="589" d="M104 184v1057q0 86 50 141q57 66 159 66h209v-207h-108v102h-101q-35 0 -69.5 -30.5t-34.5 -71.5v-1057q0 -39 31.5 -68.5t72.5 -29.5q39 0 70 26.5t31 71.5v56h110v-56q0 -78 -60.5 -142.5t-150.5 -64.5q-82 0 -141 52q-68 57 -68 155z" />
<glyph unicode="D" d="M104 0v1448h209q86 0 148.5 -55.5t62.5 -151.5v-1036q0 -92 -64.5 -148.5t-146.5 -56.5h-209zM209 106h104q39 0 70 29t31 70v1036q0 41 -29 71.5t-72 30.5h-104v-1237z" />
<glyph unicode="E" horiz-adv-x="536" d="M104 0v1448h312v-105h-207v-514h207v-108h-207v-615h207v-106h-312z" />
<glyph unicode="F" horiz-adv-x="536" d="M104 0v1448h322v-105h-217v-514h207v-108h-207v-721h-105z" />
<glyph unicode="G" d="M104 205v1036q0 86 50 141q57 66 159 66h209v-207h-108v102h-101q-37 0 -70.5 -31.5t-33.5 -70.5v-1036q0 -39 36 -69t77 -30h92v461h-60v105h168v-672h-209q-86 0 -143 51q-66 58 -66 154z" />
<glyph unicode="H" d="M104 0v1448h105v-565h205v565h108v-1448h-108v776h-205v-776h-105z" />
<glyph unicode="I" horiz-adv-x="376" d="M127 0v1448h102v-1448h-102z" />
<glyph unicode="J" horiz-adv-x="589" d="M51 184v56h107v-56q0 -39 27.5 -68.5t74.5 -29.5q39 0 73 29.5t34 68.5v1264h106v-1264q0 -74 -53 -135q-63 -72 -160 -72q-84 0 -146.5 60.5t-62.5 146.5z" />
<glyph unicode="K" d="M104 0v1448h105v-578l205 285v293h110v-328l-243 -342l243 -346v-432h-110v393l-205 281v-674h-105z" />
<glyph unicode="L" horiz-adv-x="485" d="M104 0v1448h105v-1342h262v-106h-367z" />
<glyph unicode="M" horiz-adv-x="751" d="M104 0v1448h105v-145l160 -385l151 385v145h109v-1448h-109v1010l-151 -373l-160 373v-1010h-105z" />
<glyph unicode="N" d="M104 0v1448h105v-342l205 -338v680h108v-1448h-108v547l-205 344v-891h-105z" />
<glyph unicode="O" d="M104 184v1078q0 82 57.5 145t151.5 63q86 0 148.5 -57t62.5 -151v-1078q0 -84 -59 -145.5t-152 -61.5q-86 0 -147.5 57.5t-61.5 149.5zM209 184q0 -41 33.5 -69.5t70.5 -28.5q39 0 70 26.5t31 71.5v1078q0 35 -31 69.5t-70 34.5t-71.5 -35t-32.5 -69v-1078z" />
<glyph unicode="P" horiz-adv-x="589" d="M104 0v1448h213q82 0 144.5 -58.5t62.5 -146.5v-520q0 -82 -58 -144.5t-149 -62.5h-106v-516h-107zM211 625h106q39 0 68 28.5t29 69.5v520q0 45 -32 75t-73 30h-98v-723z" />
<glyph unicode="Q" d="M104 184v1078q0 90 61.5 149t147.5 59t148.5 -57t62.5 -151v-1078q0 -59 -35 -110q-10 -16 -34 -39l125 -123l-88 -74l-146 144l-51 -5q-68 0 -129.5 59.5t-61.5 147.5zM209 184q0 -39 31.5 -68.5t72.5 -29.5q39 0 70 26.5t31 71.5v1078q0 35 -31 69.5t-70 34.5 q-41 0 -72.5 -36t-31.5 -68v-1078z" />
<glyph unicode="R" horiz-adv-x="589" d="M104 0v1448h213q84 0 146.5 -58.5t62.5 -148.5v-414q0 -86 -75 -157q74 -55 73 -152v-518h-110v518q0 33 -30 68t-71 35h-104v-621h-105zM209 725h104q45 0 75 41t30 82v393q0 39 -30 70.5t-71 31.5h-108v-618z" />
<glyph unicode="S" horiz-adv-x="600" d="M84 985v277q0 92 58.5 150t150.5 58q90 0 149.5 -59t59.5 -149v-154h-107v154q0 35 -30.5 69.5t-71.5 34.5q-37 0 -71 -34t-34 -70v-240l314 -514v-324q0 -80 -59.5 -143.5t-149.5 -63.5q-80 0 -141 54q-68 59 -68 153v162h104v-162q0 -39 32 -68.5t73 -29.5 q37 0 69.5 30.5t32.5 67.5v283z" />
<glyph unicode="T" horiz-adv-x="536" d="M51 1343v105h420v-105h-156v-1343h-110v1343h-154z" />
<glyph unicode="U" d="M104 184v1264h105v-1264q0 -39 31.5 -68.5t72.5 -29.5q39 0 70 28.5t31 69.5v1264h110v-1264q0 -80 -59 -143.5t-152 -63.5q-84 0 -143 54q-66 59 -66 153z" />
<glyph unicode="V" d="M104 -10v1458h105v-1342q59 0 121 50q84 68 84 176v1116h110v-1116q0 -135 -84 -223q-113 -119 -262 -119h-74z" />
<glyph unicode="W" horiz-adv-x="962" d="M104 184v1264h105v-1264q0 -39 31.5 -68.5t72.5 -29.5q39 0 70 26.5t31 71.5v1264h110v-1264q0 -39 32 -68.5t73 -29.5q37 0 67.5 30.5t30.5 67.5v1264h111v-1264q0 -78 -60.5 -142.5t-148.5 -64.5q-49 0 -87 15.5t-71 56.5q-72 -72 -168 -72q-76 0 -137.5 57.5 t-61.5 149.5z" />
<glyph unicode="X" d="M104 0v649l127 129l-127 129v541h105v-492l104 -98l101 98v492h110v-541l-129 -129l127 -129v-649h-108v594l-101 100l-104 -98v-596h-105z" />
<glyph unicode="Y" horiz-adv-x="589" d="M74 1018v430h104v-393l107 -170l102 164v399h105v-430l-154 -258v-760h-111v758z" />
<glyph unicode="Z" horiz-adv-x="536" d="M74 0v530l260 514v299h-260v105h364v-422l-260 -518v-402h258v-106h-362z" />
<glyph unicode="[" horiz-adv-x="536" d="M205 -53v1554h211v-104h-101v-1342h101v-108h-211z" />
<glyph unicode="\" d="M104 1026v422h105v-404l315 -620v-424h-110v403z" />
<glyph unicode="]" horiz-adv-x="536" d="M104 -53v108h101v1342h-101v104h209v-1554h-209z" />
<glyph unicode="^" d="M170 1579l166 160l158 -160l-54 -53l-104 110l-115 -110z" />
<glyph unicode="_" horiz-adv-x="536" d="M0 -102h541v-62h-541v62z" />
<glyph unicode="`" horiz-adv-x="579" d="M287 1548l53 51l154 -159l-50 -49z" />
<glyph unicode="a" horiz-adv-x="536" d="M53 205v209q0 80 56.5 145.5t152.5 65.5h107v202q0 35 -30 67t-77 32h-94v110h94q90 0 149.5 -61.5t59.5 -147.5v-829h-209q-84 0 -146.5 60.5t-62.5 146.5zM156 205q0 -39 35.5 -69t76.5 -30h101v410h-107q-35 0 -70.5 -31.5t-35.5 -70.5v-209z" />
<glyph unicode="b" horiz-adv-x="604" d="M88 0v1448h105v-412h106q82 0 144.5 -57t62.5 -152v-622q0 -86 -59.5 -145.5t-147.5 -59.5h-211zM193 106h98q49 0 77.5 29t28.5 70v622q0 41 -28.5 70t-69.5 29h-106v-820z" />
<glyph unicode="c" horiz-adv-x="573" d="M88 184v643q0 82 59.5 145.5t149.5 63.5h205v-209h-105v99h-100q-43 0 -75 -28t-32 -71v-643q0 -37 33 -67.5t74 -30.5t70.5 27.5t29.5 70.5v56h107v-56q0 -76 -59.5 -141.5t-147.5 -65.5q-84 0 -146.5 55.5t-62.5 151.5z" />
<glyph unicode="d" horiz-adv-x="565" d="M88 205v622q0 84 58.5 146.5t150.5 62.5h100v412h105v-1448h-205q-84 0 -143 53q-66 60 -66 152zM190 205q0 -39 34 -69t98 -30h75v820h-100q-45 0 -76 -26t-31 -73v-622z" />
<glyph unicode="e" horiz-adv-x="538" d="M63 184v666q0 84 59.5 145.5t151.5 61.5q84 0 145.5 -57.5t61.5 -149.5v-438h-315v-228q0 -39 33.5 -68.5t74.5 -29.5q37 0 71 29.5t34 68.5v56h102v-56q0 -78 -58 -142.5t-149 -64.5q-82 0 -146.5 62.5t-64.5 144.5zM166 520h213v330q0 31 -32 64.5t-73 33.5 q-43 0 -75.5 -30.5t-32.5 -67.5v-330z" />
<glyph unicode="f" horiz-adv-x="413" d="M29 926v110h104v205q0 90 58.5 148.5t152.5 58.5h102v-105h-102q-35 0 -69.5 -32.5t-34.5 -69.5v-205h104v-110h-104v-926h-107v926h-104z" />
<glyph unicode="g" horiz-adv-x="532" d="M53 205v622q0 80 56.5 144.5t152.5 64.5h209v-1140q0 -82 -57.5 -143.5t-151.5 -61.5h-98v106h98q45 0 82 41q25 29 25 58v102h-107q-84 0 -146.5 60.5t-62.5 146.5zM156 205q0 -39 35.5 -69t76.5 -30h101v820h-107q-47 0 -76.5 -30t-29.5 -67v-624z" />
<glyph unicode="h" horiz-adv-x="602" d="M100 0v1448h105v-504q61 47 119 72q72 31 141 31h53v-1047h-108v926q-57 0 -125 -62q-80 -72 -80 -162v-702h-105z" />
<glyph unicode="i" horiz-adv-x="356" d="M98 926v110h154v-1036h-107v926h-47zM145 1231v108h107v-108h-107z" />
<glyph unicode="j" horiz-adv-x="331" d="M-49 -203h96q35 0 66.5 26.5t31.5 72.5v1030h-47v110h156v-1140q0 -84 -59.5 -145.5t-147.5 -61.5h-96v108zM145 1231v108h107v-108h-107z" />
<glyph unicode="k" horiz-adv-x="589" d="M78 0v1448h106v-784l207 284v88h107v-125l-246 -342l246 -344v-225h-107v184l-207 289v-473h-106z" />
<glyph unicode="l" horiz-adv-x="409" d="M90 195v1253h103v-1253q0 -33 33.5 -65t72.5 -32h53v-110h-53q-82 0 -141 51q-68 60 -68 156z" />
<glyph unicode="m" horiz-adv-x="870" d="M63 0v856q0 96 74 154q61 47 133 47q59 0 92 -17q16 -8 70 -53q20 29 69.5 49.5t92.5 20.5q63 0 123 -47q76 -59 76 -160v-850h-105v850q0 31 -33.5 64.5t-64.5 33.5q-35 0 -70 -30.5t-35 -67.5v-850h-106v850q0 39 -34 68.5t-69 29.5q-39 0 -70.5 -29.5t-31.5 -68.5 v-850h-111z" />
<glyph unicode="n" horiz-adv-x="612" d="M88 0v856q0 88 58.5 144.5t154.5 56.5q82 0 143.5 -59.5t61.5 -147.5v-850h-109v850q0 39 -31.5 68.5t-64.5 29.5q-37 0 -70.5 -29.5t-33.5 -68.5v-850h-109z" />
<glyph unicode="o" horiz-adv-x="565" d="M70 184v666q0 78 58 142.5t153 64.5q84 0 145 -59.5t61 -147.5v-666q0 -78 -58 -142.5t-148 -64.5q-84 0 -147.5 59.5t-63.5 147.5zM174 184q0 -37 33 -67.5t74 -30.5q37 0 70.5 29.5t33.5 68.5v666q0 33 -33 65.5t-71 32.5q-41 0 -74 -28.5t-33 -69.5v-666z" />
<glyph unicode="p" horiz-adv-x="579" d="M88 -309v1343h215q88 0 145.5 -59.5t57.5 -147.5v-622q0 -82 -58.5 -144.5t-146.5 -62.5h-104v-307h-109zM197 106h104q37 0 66.5 30t29.5 69v622q0 39 -24.5 68t-69.5 29h-106v-818z" />
<glyph unicode="q" horiz-adv-x="604" d="M88 205v649q0 82 55.5 142.5t149.5 60.5h209v-1366h-105v307h-100q-84 0 -143 53q-66 60 -66 154zM190 205q0 -39 32 -69t83 -30h92v842h-104q-39 0 -71 -29.5t-32 -64.5v-649z" />
<glyph unicode="r" horiz-adv-x="448" d="M88 0v827q0 82 51 142q59 68 158 67h100v-110h-67q-49 0 -91 -38t-42 -91v-797h-109z" />
<glyph unicode="s" horiz-adv-x="552" d="M70 184v56h104v-56q0 -37 31 -67.5t74 -30.5q41 0 73.5 30.5t32.5 67.5v172l-315 310v184q0 84 57 145.5t152 61.5q86 0 147 -61.5t61 -145.5v-53h-102v53q0 31 -31 61q-37 37 -75 37q-43 0 -74 -28.5t-31 -69.5v-131l313 -309v-226q0 -78 -58 -142.5t-150 -64.5 q-82 0 -145.5 57.5t-63.5 149.5z" />
<glyph unicode="t" horiz-adv-x="425" d="M51 926v110h103v258h108v-258h107v-110h-107v-926h-108v926h-103z" />
<glyph unicode="u" horiz-adv-x="561" d="M70 184v852h104v-852q0 -37 33 -67.5t74 -30.5q37 0 70.5 32t33.5 66v852h102v-858q0 -86 -61 -143.5t-145 -57.5q-82 0 -146.5 58.5t-64.5 148.5z" />
<glyph unicode="v" horiz-adv-x="600" d="M100 -12v1048h105v-930q61 0 125 54q80 68 80 172v704h110v-704q0 -154 -127 -256q-109 -88 -219 -88h-74z" />
<glyph unicode="w" horiz-adv-x="937" d="M96 184v852h103v-852q0 -35 31.5 -66.5t72.5 -31.5q43 0 71.5 28.5t28.5 69.5v852h111v-852q0 -37 30.5 -67.5t73.5 -30.5q33 0 58 20q43 35 43 78v852h108v-852q0 -82 -58 -144.5t-151 -62.5q-82 0 -159 72q-39 -35 -76 -53.5t-88 -18.5q-80 0 -135 52q-64 57 -64 155z " />
<glyph unicode="x" horiz-adv-x="628" d="M98 0v436l127 133l-127 129v338h105v-286l102 -99l103 99v286h110v-338l-127 -129l127 -133v-436h-110v387l-103 102l-102 -100v-389h-105z" />
<glyph unicode="y" horiz-adv-x="632" d="M98 332v704h105v-704q0 -74 65.5 -150t139.5 -76v930h110v-1140q0 -82 -60.5 -144.5t-152.5 -62.5h-96v108h96q35 0 69 28t34 71v94q-123 20 -211 106q-99 97 -99 236z" />
<glyph unicode="z" horiz-adv-x="516" d="M70 0v350l260 414v162h-260v110h366v-309l-262 -414v-207h260v-106h-364z" />
<glyph unicode="{" horiz-adv-x="536" d="M35 745l158 162v385q0 94 61 151.5t145 57.5h54v-104h-54q-33 0 -65.5 -31t-32.5 -74v-436l-111 -111l111 -106v-483q0 -31 30.5 -66t67.5 -35h54v-110h-54q-78 0 -139 55q-68 61 -67 156v428z" />
<glyph unicode="|" horiz-adv-x="536" d="M195 0v1448h106v-1448h-106z" />
<glyph unicode="}" horiz-adv-x="536" d="M63 -55v110h56q33 0 67.5 31t34.5 70v483l111 106l-111 111v436q0 35 -32.5 70t-69.5 35h-56v104h56q82 0 147.5 -59.5t65.5 -149.5v-385l155 -162l-155 -159v-430q0 -88 -61.5 -149.5t-151.5 -61.5h-56z" />
<glyph unicode="~" d="M117 1460l131 127l104 -96l76 76l53 -51l-129 -130l-104 105l-84 -80z" />
<glyph unicode="&#xa1;" horiz-adv-x="536" d="M195 -309v1192h106v-1192h-106zM195 1034v109h106v-109h-106z" />
<glyph unicode="&#xa2;" horiz-adv-x="608" d="M104 467v516q0 88 52.5 147.5t156.5 59.5h209v-207h-108v104h-101q-37 0 -70.5 -31.5t-33.5 -72.5v-516q0 -37 31.5 -68.5t72.5 -31.5q39 0 70 28.5t31 71.5v53h110v-53q0 -80 -59 -145.5t-152 -65.5q-84 0 -143 53q-66 60 -66 158zM258 0v158h111v-158h-111zM258 1292 v156h111v-156h-111z" />
<glyph unicode="&#xa3;" horiz-adv-x="589" d="M51 721v108h103v412q0 86 58 146.5t157 60.5h102v-105h-102q-37 0 -72 -30.5t-35 -71.5v-412h209v-108h-209v-615h260v-106h-368v721h-103z" />
<glyph unicode="&#xa4;" horiz-adv-x="608" d="M115 393l43 51q-8 14 -13 25q-12 31 -12 66q0 33 12 63q4 10 13 25l-43 47l45 51l51 -49q16 10 27 14q33 14 65 14q39 0 74 -18q6 -2 16 -10l45 49l51 -51l-49 -47q6 -8 9 -13q18 -35 18 -73q0 -45 -16 -80q-2 -6 -11 -15l49 -47l-51 -49l-45 45q-16 -8 -26 -10 q-33 -10 -64 -10q-43 0 -78 14q-6 2 -14 8l-51 -47zM203 537q0 -41 28.5 -72t71.5 -31q41 0 67.5 26.5t26.5 76.5q0 43 -26.5 69.5t-67.5 26.5q-37 0 -68.5 -25.5t-31.5 -70.5z" />
<glyph unicode="&#xa5;" d="M104 307v109h154v100h-154v109h154v133l-154 260v430h105v-393l104 -170l101 164v399h110v-430l-153 -258v-135h151v-109h-151v-100h151v-109h-151v-307h-113v307h-154z" />
<glyph unicode="&#xa6;" horiz-adv-x="350" d="M133 0v664h78v-664h-78zM133 887v669h78v-669h-78z" />
<glyph unicode="&#xa7;" horiz-adv-x="573" d="M66 557v660q0 82 49 141q59 72 161 72q86 0 147.5 -59.5t61.5 -153.5v-50h-104v50q0 47 -36 76.5t-77 29.5q-33 0 -64.5 -34t-31.5 -72v-189q47 29 107 29q88 0 148 -58.5t60 -148.5v-666q0 -78 -58 -142.5t-150 -64.5q-82 0 -145.5 61.5t-63.5 145.5v56h104v-56 q0 -37 31 -67.5t74 -30.5q39 0 70.5 29.5t31.5 68.5v191q-29 -14 -49.5 -19.5t-55.5 -5.5q-94 0 -152 58.5t-58 148.5zM174 557q0 -31 29.5 -68.5t72.5 -37.5t75 33.5t32 72.5v293q0 35 -32 66.5t-72 31.5q-35 0 -70 -28.5t-35 -69.5v-293z" />
<glyph unicode="&#xa8;" d="M186 1446v106h84v-106h-84zM391 1446v106h88v-106h-88z" />
<glyph unicode="&#xa9;" horiz-adv-x="1267" d="M104 494v460q0 215 146.5 363.5t370.5 148.5q211 0 364.5 -151.5t153.5 -360.5v-460q0 -207 -150.5 -359.5t-367.5 -152.5q-207 0 -359 141q-158 148 -158 371zM197 494q0 -166 121.5 -292t302.5 -126q168 0 294.5 123t126.5 295v460q0 190 -155 316q-131 106 -266 106 q-166 0 -295 -131t-129 -291v-460zM457 403v635q0 57 30 95q39 47 115 47h139v-160h-94v61h-45q-18 0 -31.5 -19.5t-13.5 -43.5v-615q0 -12 13.5 -27.5t31.5 -15.5q12 0 28.5 14.5t16.5 28.5v48h96v-48q0 -57 -41 -100t-100 -43q-66 0 -105.5 40t-39.5 103z" />
<glyph unicode="&#xaa;" horiz-adv-x="618" d="M84 694v187q0 59 35 104q45 59 131 59h84v162q0 27 -26.5 55.5t-57.5 28.5h-78v90h78q68 0 117 -45t49 -129v-516l96 -84l-72 -65l-51 53q-20 -20 -35 -31q-49 -33 -104 -33q-70 0 -118 46t-48 118zM164 694q0 -25 26.5 -51.5t59.5 -26.5q31 0 57.5 25t26.5 53v262h-84 q-31 0 -58.5 -22.5t-27.5 -52.5v-187z" />
<glyph unicode="&#xab;" horiz-adv-x="751" d="M51 623l189 186l65 -64l-125 -122l125 -127l-65 -66zM367 623l186 186l68 -64l-127 -122l127 -127l-68 -66z" />
<glyph unicode="&#xac;" horiz-adv-x="3475" d="M84 203q0 78 34 187.5t68 154.5l97 127l30 41q-125 0 -143 133q29 -4 43 -4q80 0 168 49q74 41 141 108l19 5q12 -16 12 -48q0 -111 -74 -168l-116 -77l-93 -131q-61 -88 -61 -154q0 -43 22.5 -109.5t53.5 -66.5q51 0 188 94l184 131l60 152q41 98 82 145q29 33 37 41 q27 23 53 23q39 0 39 -41q0 -55 -56 -117q-39 -43 -102 -84q-8 -14 -28.5 -94t-20.5 -103q0 -31 59 -114q41 -59 92 -117q57 272 388 567q313 281 577 332q199 43 303 57q145 20 305 21q109 0 235 -11.5t271 -33.5q182 -31 297 -174q156 -195 156 -559q0 -211 -121 -312 q-113 -94 -328 -94q-63 0 -121 16q-90 25 -90 72q0 29 17.5 44t42.5 15q27 0 53.5 -14t43.5 -48t85 -48q330 0 330 352q2 8 2 40t2 52q0 211 -88 361q-117 197 -359 229q-401 53 -524 53q-86 0 -172 -12q-137 -25 -238 -41q-303 -51 -651 -362.5t-377 -560.5 q31 -47 46.5 -95.5t15.5 -101.5q0 -29 -6 -52.5t-29 -23.5q-37 0 -60.5 71.5t-23.5 125.5v14q-90 70 -125 105q-86 84 -92 140t-6 97q0 27 2 39q-115 -96 -232 -172q-170 -111 -254 -111q-20 0 -41.5 17.5t-21.5 42.5zM1047 74q8 39 71 39q12 0 41 -6.5t51.5 -33t14.5 -53.5 q-10 -41 -68 -40q-18 0 -46 7t-49 32q-17 20 -17 42q1 7 2 13zM1225 176q0 76 56 136.5t136 78.5l4 -14q-57 -23 -86 -47q-41 -35 -41 -88q0 -109 142 -156q98 -33 243 -33q100 0 200.5 33t178.5 92q37 27 59.5 58.5t22.5 72.5q0 57 -59 78q-37 12 -109 12q-45 0 -117.5 -5 t-85.5 -5q-109 0 -178 43q-86 53 -86 160q0 150 144 239q127 80 290 80q49 0 80 -6q31 -7 56 -31q6 4 12 5h10q18 0 34.5 -36t33.5 -48q6 -2 8 -11q0 -2 2 -4q-6 -18 -27 -41q-57 -59 -61 -67q-6 -16 -16 -17q-8 0 -31 18.5t-27 20.5q-12 2 -20 4q-27 8 -27 27q0 20 24.5 53 t24.5 55.5t-18.5 37t-63.5 14.5q-121 0 -217 -54q-119 -66 -119 -176q0 -59 60 -86q43 -18 112 -18q29 0 98.5 4t76.5 4q123 0 180 -18q100 -33 100 -129q0 -86 -63 -174q-49 -68 -136 -132q-205 -156 -460 -155q-133 0 -224 45q-116 59 -116 180zM2081 80q10 37 63 37 q16 0 46 -8.5t50.5 -30t14.5 -45.5q-12 -41 -66 -41q-23 0 -35 4q-39 10 -60 35q-16 18 -15 35q0 7 2 14zM2351 119q0 31 22.5 66.5t55.5 66.5q51 -63 57 -68q35 -31 78 -30q121 0 215 202q80 172 80 308q0 59 -27 88q-33 35 -133 34q-129 0 -143 -77.5t-31 -85.5l-16 45 q2 10 2 32q0 16 -1 36t-1 40q0 74 28 107q41 47 152 47q123 0 190 -15q119 -25 119 -96q0 -106 -137 -395q-55 -115 -109.5 -213t-89.5 -141q-70 -84 -139 -84q-53 0 -112.5 39t-59.5 94z" />
<glyph unicode="&#xad;" horiz-adv-x="485" d="M104 569v103h265v-103h-265z" />
<glyph unicode="&#xae;" horiz-adv-x="1267" d="M104 494v460q0 211 148.5 361.5t368.5 150.5q217 0 367.5 -152.5t150.5 -359.5v-460q0 -219 -154 -365.5t-364 -146.5q-217 0 -363 137q-154 144 -154 375zM197 494q0 -174 119.5 -296t304.5 -122q166 0 293.5 126t127.5 292v460q0 188 -157 316q-133 106 -264 106 q-164 0 -294 -134t-130 -288v-460zM481 244v952h146q55 0 95 -35t40 -98v-277q0 -25 -12.5 -50t-34.5 -54q18 -14 32.5 -44t14.5 -54v-340h-78v340q0 23 -21.5 46t-44.5 23h-65v-409h-72zM553 723h72q20 0 40.5 22.5t20.5 40.5v277q0 18 -19.5 44t-39.5 26h-74v-410z" />
<glyph unicode="&#xaf;" horiz-adv-x="501" d="M133 1458v84h262v-84h-262z" />
<glyph unicode="&#xb0;" horiz-adv-x="425" d="M74 1346q0 55 33.5 93t95.5 38q57 0 96 -37t39 -94q0 -59 -39 -94t-96 -35q-53 0 -91 36t-38 93zM109 1346q0 -41 26.5 -68t67.5 -27q43 0 70.5 26t27.5 69t-22.5 68.5t-75.5 25.5q-41 0 -67.5 -23.5t-26.5 -70.5z" />
<glyph unicode="&#xb1;" horiz-adv-x="536" d="M84 287v104h352v-104h-352zM84 643v105h121v225h110v-225h121v-105h-121v-229h-110v229h-121z" />
<glyph unicode="&#xb2;" horiz-adv-x="550" d="M127 1266v47q0 141 141 141q59 0 101.5 -35t42.5 -106v-275l-185 -247v-152h185v-100h-285v280l184 248v246q0 14 -12 28.5t-31 14.5q-14 0 -28.5 -12.5t-14.5 -30.5v-47h-98z" />
<glyph unicode="&#xb3;" horiz-adv-x="550" d="M125 666v51h98v-51q0 -16 10.5 -28.5t30.5 -12.5q16 0 30.5 14t14.5 27v260q0 16 -16.5 29.5t-28.5 13.5h-82v102h82q16 0 30.5 16.5t14.5 28.5v197q0 16 -16.5 29.5t-28.5 13.5t-26.5 -12.5t-14.5 -30.5v-47h-98v47q0 141 139 141q143 0 144 -141v-197q0 -59 -35 -90 q35 -47 35 -100v-260q0 -57 -37 -100.5t-107 -43.5q-76 0 -107.5 43.5t-31.5 100.5z" />
<glyph unicode="&#xb4;" horiz-adv-x="565" d="M172 1440l160 159l47 -51l-154 -157z" />
<glyph unicode="&#xb5;" horiz-adv-x="561" d="M70 -127v1163h104v-852q0 -37 33 -67.5t74 -30.5q37 0 70.5 32t33.5 66v852h102v-858q0 -86 -61 -143.5t-145 -57.5q-80 0 -107 41v-145q0 -20 -15.5 -33.5t-35.5 -13.5q-18 0 -35.5 15.5t-17.5 31.5z" />
<glyph unicode="&#xb6;" horiz-adv-x="733" d="M74 965v276q0 84 55 145.5t156 61.5h313v-1448h-111v1343h-96v-1343h-108v758q-86 0 -147.5 57.5t-61.5 149.5z" />
<glyph unicode="&#xb7;" horiz-adv-x="485" d="M170 557v107h109v-107h-109z" />
<glyph unicode="&#x2219;" horiz-adv-x="485" d="M170 557v107h109v-107h-109z" />
<glyph unicode="&#xb8;" horiz-adv-x="589" d="M238 -233q109 63 108 172v32l33 95l74 -25l-25 -78v-24q0 -76 -25.5 -125.5t-117.5 -116.5z" />
<glyph unicode="&#xb9;" horiz-adv-x="550" d="M154 1341l188 123v-932h-102v746l-29 -18z" />
<glyph unicode="&#xba;" horiz-adv-x="518" d="M84 791v530q0 70 47 119t119 49q66 0 116 -45t50 -123v-530q0 -57 -31 -103q-43 -63 -135 -63q-84 0 -129 55q-37 48 -37 111zM164 791q0 -31 27.5 -56.5t58.5 -25.5q27 0 55.5 24.5t28.5 57.5v530q0 35 -29 57.5t-59.5 22.5t-56 -21.5t-25.5 -58.5v-530z" />
<glyph unicode="&#xbb;" horiz-adv-x="751" d="M104 496l121 127l-121 122l60 64l194 -186l-194 -193zM414 496l125 127l-125 122l65 64l189 -186l-189 -193z" />
<glyph unicode="&#xbc;" horiz-adv-x="1198" d="M92 1341l189 123v-932h-103v746l-28 -18zM328 -20v423l307 621v403h104v-421l-313 -623v-403h-98zM696 281v266l209 389h82v-567h68v-88h-68v-301h-88v301h-203zM784 369h115v372l-115 -206v-166z" />
<glyph unicode="&#xbd;" horiz-adv-x="1191" d="M154 1341l188 123v-932h-102v746l-29 -18zM399 0v424l308 620v404h104v-422l-313 -623v-403h-99zM813 723v47q0 141 141 141q59 0 101.5 -34.5t42.5 -106.5v-274l-185 -248v-152h185v-100h-285v280l184 248v246q0 14 -12 28.5t-31 14.5q-14 0 -28.5 -12.5t-14.5 -30.5 v-47h-98z" />
<glyph unicode="&#xbe;" horiz-adv-x="1118" d="M125 666v51h98v-51q0 -16 10.5 -28.5t30.5 -12.5q16 0 30.5 14t14.5 27v260q0 16 -16.5 29.5t-28.5 13.5h-82v102h82q16 0 30.5 16.5t14.5 28.5v197q0 16 -16.5 29.5t-28.5 13.5t-26.5 -12.5t-14.5 -30.5v-47h-98v47q0 141 139 141q143 0 144 -141v-197q0 -59 -35 -90 q35 -47 35 -100v-260q0 -57 -37 -100.5t-107 -43.5q-76 0 -107.5 43.5t-31.5 100.5zM358 -20v423l308 621v403h104v-421l-313 -623v-403h-99zM707 291v266l208 389h82v-567h68v-88h-68v-301h-88v301h-202zM795 379h114v373l-114 -207v-166z" />
<glyph unicode="&#xbf;" horiz-adv-x="751" d="M152 -119v508l153 158v338h113v-391l-156 -152v-461q0 -35 31 -69.5t69 -34.5q41 0 73 35.5t32 68.5v51h104v-51q0 -84 -56 -146.5t-153 -62.5q-86 0 -145 54q-65 59 -65 155zM307 1036v107h111v-107h-111z" />
<glyph unicode="&#xc0;" d="M104 0v1262q0 84 56.5 146t152.5 62q86 0 148.5 -56t62.5 -152v-1262h-110v567h-205v-567h-105zM209 672h205v590q0 31 -31 67.5t-70 36.5t-71.5 -37t-32.5 -67v-590zM209 1696l53 51l154 -160l-49 -49z" />
<glyph unicode="&#xc1;" d="M104 0v1262q0 84 56.5 146t152.5 62q86 0 148.5 -56t62.5 -152v-1262h-110v567h-205v-567h-105zM209 672h205v590q0 31 -31 67.5t-70 36.5t-71.5 -37t-32.5 -67v-590zM219 1597l160 160l47 -51l-154 -158z" />
<glyph unicode="&#xc2;" d="M104 0v1262q0 84 56.5 146t152.5 62q86 0 148.5 -56t62.5 -152v-1262h-110v567h-205v-567h-105zM154 1591l159 166l166 -166l-53 -49l-113 111l-110 -111zM209 672h205v590q0 31 -31 67.5t-70 36.5t-71.5 -37t-32.5 -67v-590z" />
<glyph unicode="&#xc3;" d="M104 0v1262q0 84 56.5 146t152.5 62q86 0 148.5 -56t62.5 -152v-1262h-110v567h-205v-567h-105zM131 1624l129 129l107 -100l79 78l54 -54l-133 -127l-107 101l-76 -76zM209 672h205v590q0 31 -31 67.5t-70 36.5t-71.5 -37t-32.5 -67v-590z" />
<glyph unicode="&#xc4;" d="M104 0v1262q0 84 56.5 146t152.5 62q86 0 148.5 -56t62.5 -152v-1262h-110v567h-205v-567h-105zM174 1583v107h84v-107h-84zM209 672h205v590q0 31 -31 67.5t-70 36.5t-71.5 -37t-32.5 -67v-590zM379 1583v107h88v-107h-88z" />
<glyph unicode="&#xc5;" d="M104 0v1262q0 84 56.5 146t152.5 62q86 0 148.5 -56t62.5 -152v-1262h-110v567h-205v-567h-105zM166 1663q0 53 42 97t95 44t98 -37.5t45 -103.5q0 -63 -44 -100t-99 -37q-47 0 -88 35q-49 41 -49 102zM209 672h205v590q0 31 -31 67.5t-70 36.5t-71.5 -37t-32.5 -67v-590 zM248 1661q0 -23 18.5 -39t44.5 -16q23 0 39.5 18t16.5 45q0 23 -18.5 39t-45.5 16q-23 0 -39 -18t-16 -45z" />
<glyph unicode="&#xc6;" horiz-adv-x="858" d="M104 0v1262q0 86 59.5 147t149.5 61q37 0 72 -14q6 -2 14 -8h330v-105h-205v-514h205v-108h-205v-615h205v-106h-315v567h-205v-567h-105zM209 672h205v590q0 37 -32 70.5t-69 33.5q-35 0 -69.5 -33t-34.5 -71v-590z" />
<glyph unicode="&#xc7;" horiz-adv-x="589" d="M104 184v1057q0 86 50 141q57 66 159 66h209v-207h-108v102h-101q-35 0 -69.5 -30.5t-34.5 -71.5v-1057q0 -39 31.5 -68.5t72.5 -29.5q39 0 70 26.5t31 71.5v56h110v-56q0 -80 -55 -139q-63 -68 -168 -68v-16v-24q0 -96 -47 -156q-23 -29 -100 -86l-48 69q106 63 107 173 v32l10 27q-53 25 -86 72.5t-33 115.5z" />
<glyph unicode="&#xc8;" horiz-adv-x="536" d="M104 0v1448h312v-105h-207v-514h207v-108h-207v-615h207v-106h-312zM147 1710l54 51l153 -159l-49 -50z" />
<glyph unicode="&#xc9;" horiz-adv-x="536" d="M104 0v1448h312v-105h-207v-514h207v-108h-207v-615h207v-106h-312zM164 1604l160 159l47 -51l-154 -158z" />
<glyph unicode="&#xca;" horiz-adv-x="536" d="M96 1602l160 165l166 -165l-53 -50l-113 111l-111 -111zM104 0v1448h312v-105h-207v-514h207v-108h-207v-615h207v-106h-312z" />
<glyph unicode="&#xcb;" horiz-adv-x="536" d="M104 0v1448h312v-105h-207v-514h207v-108h-207v-615h207v-106h-312zM111 1577v106h84v-106h-84zM315 1577v106h88v-106h-88z" />
<glyph unicode="&#xcc;" horiz-adv-x="376" d="M16 1688l54 51l153 -160l-49 -49zM127 0v1448h102v-1448h-102z" />
<glyph unicode="&#xcd;" horiz-adv-x="376" d="M127 0v1448h102v-1448h-102zM129 1581l160 160l47 -51l-154 -158z" />
<glyph unicode="&#xce;" horiz-adv-x="376" d="M16 1585l160 166l166 -166l-53 -49l-113 111l-110 -111zM127 0v1448h102v-1448h-102z" />
<glyph unicode="&#xcf;" horiz-adv-x="376" d="M37 1571v106h84v-106h-84zM127 0v1448h102v-1448h-102zM242 1571v106h88v-106h-88z" />
<glyph unicode="&#xd0;" d="M33 670v112h96v666h211q84 0 146.5 -58.5t62.5 -148.5v-1036q0 -90 -66.5 -147.5t-142.5 -57.5h-211v670h-96zM236 106h104q41 0 68.5 35t27.5 64v1036q0 33 -22 64q-29 39 -74 38h-104v-561h57v-112h-57v-564z" />
<glyph unicode="&#xd1;" d="M104 0v1448h105v-342l205 -338v680h108v-1448h-108v547l-205 344v-891h-105zM129 1628l129 129l107 -100l79 78l54 -54l-133 -127l-107 101l-76 -76z" />
<glyph unicode="&#xd2;" d="M104 184v1078q0 82 57.5 145t151.5 63q86 0 148.5 -57t62.5 -151v-1078q0 -84 -59 -145.5t-152 -61.5q-86 0 -147.5 57.5t-61.5 149.5zM205 1698l53 51l154 -160l-50 -49zM209 184q0 -41 33.5 -69.5t70.5 -28.5q39 0 70 26.5t31 71.5v1078q0 35 -31 69.5t-70 34.5 t-71.5 -35t-32.5 -69v-1078z" />
<glyph unicode="&#xd3;" d="M104 184v1078q0 82 57.5 145t151.5 63q86 0 148.5 -57t62.5 -151v-1078q0 -84 -59 -145.5t-152 -61.5q-86 0 -147.5 57.5t-61.5 149.5zM209 184q0 -41 33.5 -69.5t70.5 -28.5q39 0 70 26.5t31 71.5v1078q0 35 -31 69.5t-70 34.5t-71.5 -35t-32.5 -69v-1078zM217 1585 l160 160l47 -51l-154 -158z" />
<glyph unicode="&#xd4;" d="M104 184v1078q0 82 57.5 145t151.5 63q86 0 148.5 -57t62.5 -151v-1078q0 -84 -59 -145.5t-152 -61.5q-86 0 -147.5 57.5t-61.5 149.5zM152 1597l159 166l166 -166l-53 -49l-113 111l-110 -111zM209 184q0 -41 33.5 -69.5t70.5 -28.5q39 0 70 26.5t31 71.5v1078 q0 35 -31 69.5t-70 34.5t-71.5 -35t-32.5 -69v-1078z" />
<glyph unicode="&#xd5;" d="M104 184v1078q0 82 57.5 145t151.5 63q86 0 148.5 -57t62.5 -151v-1078q0 -84 -59 -145.5t-152 -61.5q-86 0 -147.5 57.5t-61.5 149.5zM139 1620l129 129l107 -100l80 77l53 -53l-133 -127l-107 101l-75 -76zM209 184q0 -41 33.5 -69.5t70.5 -28.5q39 0 70 26.5t31 71.5 v1078q0 35 -31 69.5t-70 34.5t-71.5 -35t-32.5 -69v-1078z" />
<glyph unicode="&#xd6;" d="M104 184v1078q0 82 57.5 145t151.5 63q86 0 148.5 -57t62.5 -151v-1078q0 -84 -59 -145.5t-152 -61.5q-86 0 -147.5 57.5t-61.5 149.5zM170 1571v106h84v-106h-84zM209 184q0 -41 33.5 -69.5t70.5 -28.5q39 0 70 26.5t31 71.5v1078q0 35 -31 69.5t-70 34.5t-71.5 -35 t-32.5 -69v-1078zM375 1571v106h88v-106h-88z" />
<glyph unicode="&#xd7;" horiz-adv-x="659" d="M82 494l160 151l-160 160l80 76l157 -160l164 162l80 -78l-166 -160l164 -164l-78 -75l-159 159l-166 -159z" />
<glyph unicode="&#xd8;" d="M-31 494l135 133v635q0 82 57.5 145t151.5 63q86 0 148.5 -57t62.5 -151v-218l76 74l57 -61l-133 -131v-742q0 -80 -61.5 -143.5t-149.5 -63.5q-84 0 -143 54q-66 59 -66 153v324l-75 -76zM209 733l205 199v330q0 35 -31 69.5t-70 34.5q-33 0 -68.5 -34t-35.5 -70v-529z M209 184q0 -39 31.5 -68.5t72.5 -29.5q39 0 70 26.5t31 71.5v633l-205 -196v-437z" />
<glyph unicode="&#xd9;" d="M104 184v1264h105v-1264q0 -39 31.5 -68.5t72.5 -29.5q39 0 70 28.5t31 69.5v1264h110v-1264q0 -80 -59 -143.5t-152 -63.5q-84 0 -143 54q-66 59 -66 153zM209 1694l53 51l154 -160l-49 -49z" />
<glyph unicode="&#xda;" d="M104 184v1264h105v-1264q0 -39 31.5 -68.5t72.5 -29.5q39 0 70 28.5t31 69.5v1264h110v-1264q0 -80 -59 -143.5t-152 -63.5q-84 0 -143 54q-66 59 -66 153zM229 1585l160 160l47 -51l-153 -158z" />
<glyph unicode="&#xdb;" d="M104 184v1264h105v-1264q0 -39 31.5 -68.5t72.5 -29.5q39 0 70 28.5t31 69.5v1264h110v-1264q0 -80 -59 -143.5t-152 -63.5q-84 0 -143 54q-66 59 -66 153zM154 1597l159 166l166 -166l-53 -49l-113 111l-110 -111z" />
<glyph unicode="&#xdc;" d="M104 184v1264h105v-1264q0 -39 31.5 -68.5t72.5 -29.5q39 0 70 28.5t31 69.5v1264h110v-1264q0 -80 -59 -143.5t-152 -63.5q-84 0 -143 54q-66 59 -66 153zM162 1571v106h84v-106h-84zM367 1571v106h88v-106h-88z" />
<glyph unicode="&#xdd;" horiz-adv-x="589" d="M74 1018v430h104v-393l107 -170l102 164v399h105v-430l-154 -258v-760h-111v758zM195 1585l159 160l47 -51l-153 -158z" />
<glyph unicode="&#xde;" horiz-adv-x="653" d="M129 0v1448h107v-242h104q86 0 147.5 -57t61.5 -148v-452q0 -84 -60.5 -144.5t-148.5 -60.5h-104v-344h-107zM236 449h104q35 0 65.5 34.5t30.5 65.5v452q0 29 -31.5 65t-64.5 36h-104v-653z" />
<glyph unicode="&#xdf;" d="M104 0v1262q0 84 56.5 146t152.5 62q84 0 147.5 -57t63.5 -151v-334q0 -88 -73 -150q74 -70 73 -155v-418q0 -94 -71 -154q-61 -51 -125 -51h-41v106h26q39 0 70 31t31 68v418q0 39 -30 68.5t-71 29.5h-104v-721h-105zM209 829h104q43 0 72 31t29 68v334q0 37 -32 70.5 t-69 33.5q-39 0 -71.5 -35t-32.5 -69v-433z" />
<glyph unicode="&#xe0;" horiz-adv-x="536" d="M53 205v209q0 80 56.5 145.5t152.5 65.5h107v202q0 35 -30 67t-77 32h-94v110h94q90 0 149.5 -61.5t59.5 -147.5v-829h-209q-84 0 -146.5 60.5t-62.5 146.5zM156 205q0 -39 35.5 -69t76.5 -30h101v410h-107q-35 0 -70.5 -31.5t-35.5 -70.5v-209zM166 1282l53 51l154 -159 l-49 -50z" />
<glyph unicode="&#xe1;" horiz-adv-x="536" d="M53 205v209q0 80 56.5 145.5t152.5 65.5h107v202q0 35 -30 67t-77 32h-94v110h94q90 0 149.5 -61.5t59.5 -147.5v-829h-209q-84 0 -146.5 60.5t-62.5 146.5zM156 205q0 -39 35.5 -69t76.5 -30h101v410h-107q-35 0 -70.5 -31.5t-35.5 -70.5v-209zM172 1169l160 160l47 -51 l-154 -158z" />
<glyph unicode="&#xe2;" horiz-adv-x="536" d="M53 205v209q0 80 56.5 145.5t152.5 65.5h107v202q0 35 -30 67t-77 32h-94v110h94q90 0 149.5 -61.5t59.5 -147.5v-829h-209q-84 0 -146.5 60.5t-62.5 146.5zM113 1180l159 166l166 -166l-53 -50l-113 111l-110 -111zM156 205q0 -39 35.5 -69t76.5 -30h101v410h-107 q-35 0 -70.5 -31.5t-35.5 -70.5v-209z" />
<glyph unicode="&#xe3;" horiz-adv-x="536" d="M53 205v209q0 80 56.5 145.5t152.5 65.5h107v202q0 35 -30 67t-77 32h-94v110h94q90 0 149.5 -61.5t59.5 -147.5v-829h-209q-84 0 -146.5 60.5t-62.5 146.5zM137 1176l99 102l81 -80l60 62l41 -41l-101 -101l-81 80l-58 -59zM156 205q0 -39 35.5 -69t76.5 -30h101v410 h-107q-35 0 -70.5 -31.5t-35.5 -70.5v-209z" />
<glyph unicode="&#xe4;" horiz-adv-x="536" d="M53 205v209q0 80 56.5 145.5t152.5 65.5h107v202q0 35 -30 67t-77 32h-94v110h94q90 0 149.5 -61.5t59.5 -147.5v-829h-209q-84 0 -146.5 60.5t-62.5 146.5zM131 1116v107h84v-107h-84zM156 205q0 -39 35.5 -69t76.5 -30h101v410h-107q-35 0 -70.5 -31.5t-35.5 -70.5 v-209zM336 1116v107h88v-107h-88z" />
<glyph unicode="&#xe5;" horiz-adv-x="536" d="M53 205v209q0 80 56.5 145.5t152.5 65.5h107v202q0 35 -30 67t-77 32h-94v110h94q90 0 149.5 -61.5t59.5 -147.5v-829h-209q-84 0 -146.5 60.5t-62.5 146.5zM156 205q0 -39 35.5 -69t76.5 -30h101v410h-107q-35 0 -70.5 -31.5t-35.5 -70.5v-209zM160 1206q0 45 35.5 81 t83.5 36q45 0 83.5 -31.5t38.5 -85.5q0 -49 -38.5 -79.5t-83.5 -30.5q-41 0 -80 30.5t-39 79.5zM229 1206q0 -47 56 -47q18 0 32.5 16.5t14.5 36.5q0 45 -53 45q-20 0 -35 -15.5t-15 -35.5z" />
<glyph unicode="&#xe6;" horiz-adv-x="962" d="M74 184v230q0 84 53 143q61 68 158 68h102v202q0 33 -30.5 66t-71.5 33h-101v110h101q86 0 137 -57q72 86 176 86q94 0 156 -76q53 -66 53 -133v-438h-315v-234q0 -37 32.5 -67.5t73.5 -30.5q39 0 67.5 30.5t28.5 67.5v56h113v-56q0 -82 -60.5 -144.5t-148.5 -62.5 q-94 0 -162 68q-59 -68 -151 -68q-90 0 -150.5 60.5t-60.5 146.5zM178 184q0 -39 32 -68.5t75 -29.5q37 0 69.5 30.5t32.5 67.5v332h-102q-35 0 -71 -31.5t-36 -70.5v-230zM492 526h202v330q0 37 -28.5 67.5t-67.5 30.5q-35 0 -70.5 -28.5t-35.5 -69.5v-330z" />
<glyph unicode="&#xe7;" horiz-adv-x="573" d="M66 -233q106 63 106 172v32l14 35q-43 27 -70.5 74t-27.5 104v643q0 82 59.5 145.5t149.5 63.5h205v-209h-105v99h-100q-43 0 -75 -28t-32 -71v-643q0 -37 33 -67.5t74 -30.5t70.5 27.5t29.5 70.5v56h107v-56q0 -76 -59.5 -141.5t-147.5 -65.5l-35 3l-4 -17v-24 q0 -98 -45 -156q-23 -29 -100 -86z" />
<glyph unicode="&#xe8;" horiz-adv-x="538" d="M63 184v666q0 84 59.5 145.5t151.5 61.5q84 0 145.5 -57.5t61.5 -149.5v-438h-315v-228q0 -39 33.5 -68.5t74.5 -29.5q37 0 71 29.5t34 68.5v56h102v-56q0 -78 -58 -142.5t-149 -64.5q-82 0 -146.5 62.5t-64.5 144.5zM162 1284l53 51l154 -159l-50 -50zM166 520h213v330 q0 31 -32 64.5t-73 33.5q-43 0 -75.5 -30.5t-32.5 -67.5v-330z" />
<glyph unicode="&#xe9;" horiz-adv-x="538" d="M63 184v666q0 84 59.5 145.5t151.5 61.5q84 0 145.5 -57.5t61.5 -149.5v-438h-315v-228q0 -39 33.5 -68.5t74.5 -29.5q37 0 71 29.5t34 68.5v56h102v-56q0 -78 -58 -142.5t-149 -64.5q-82 0 -146.5 62.5t-64.5 144.5zM162 1180l160 159l47 -51l-154 -158zM166 520h213 v330q0 31 -32 64.5t-73 33.5q-43 0 -75.5 -30.5t-32.5 -67.5v-330z" />
<glyph unicode="&#xea;" horiz-adv-x="538" d="M63 184v666q0 84 59.5 145.5t151.5 61.5q84 0 145.5 -57.5t61.5 -149.5v-438h-315v-228q0 -39 33.5 -68.5t74.5 -29.5q37 0 71 29.5t34 68.5v56h102v-56q0 -78 -58 -142.5t-149 -64.5q-82 0 -146.5 62.5t-64.5 144.5zM113 1163l159 166l166 -166l-53 -49l-113 111 l-110 -111zM166 520h213v330q0 31 -32 64.5t-73 33.5q-43 0 -75.5 -30.5t-32.5 -67.5v-330z" />
<glyph unicode="&#xeb;" horiz-adv-x="538" d="M63 184v666q0 84 59.5 145.5t151.5 61.5q84 0 145.5 -57.5t61.5 -149.5v-438h-315v-228q0 -39 33.5 -68.5t74.5 -29.5q37 0 71 29.5t34 68.5v56h102v-56q0 -78 -58 -142.5t-149 -64.5q-82 0 -146.5 62.5t-64.5 144.5zM133 1120v107h84v-107h-84zM166 520h213v330 q0 31 -32 64.5t-73 33.5q-43 0 -75.5 -30.5t-32.5 -67.5v-330zM338 1120v107h88v-107h-88z" />
<glyph unicode="&#xec;" horiz-adv-x="356" d="M51 1282l53 51l154 -159l-49 -50zM98 926v110h154v-1036h-107v926h-47z" />
<glyph unicode="&#xed;" horiz-adv-x="356" d="M98 926v110h154v-1036h-107v926h-47zM106 1163l160 160l47 -51l-153 -158z" />
<glyph unicode="&#xee;" horiz-adv-x="356" d="M25 1180l159 166l166 -166l-53 -50l-113 111l-110 -111zM98 926v110h154v-1036h-107v926h-47z" />
<glyph unicode="&#xef;" horiz-adv-x="356" d="M49 1116v107h84v-107h-84zM98 926v110h154v-1036h-107v926h-47zM254 1116v107h88v-107h-88z" />
<glyph unicode="&#xf0;" d="M104 184v561q0 84 50 142q57 66 159 65q39 0 74 -14q10 -4 27 -14v247l-121 -120l-72 69l176 174q-10 16 -18 25q-27 25 -66 24h-108v105h108q61 0 117 -37q18 -12 43 -37l94 90l74 -71l-117 -119v-1090q0 -78 -59 -142.5t-152 -64.5q-82 0 -141 52q-68 59 -68 155z M209 184q0 -39 31.5 -68.5t72.5 -29.5q37 0 69 27.5t32 70.5v561q0 39 -30 71t-71 32q-37 0 -70.5 -32t-33.5 -71v-561z" />
<glyph unicode="&#xf1;" horiz-adv-x="612" d="M88 0v856q0 88 58.5 144.5t154.5 56.5q82 0 143.5 -59.5t61.5 -147.5v-850h-109v850q0 39 -31.5 68.5t-64.5 29.5q-37 0 -70.5 -29.5t-33.5 -68.5v-850h-109zM113 1188l129 129l106 -100l80 77l53 -53l-133 -127l-106 100l-76 -75z" />
<glyph unicode="&#xf2;" horiz-adv-x="565" d="M70 184v666q0 78 58 142.5t153 64.5q84 0 145 -59.5t61 -147.5v-666q0 -78 -58 -142.5t-148 -64.5q-84 0 -147.5 59.5t-63.5 147.5zM170 1282l53 51l154 -159l-49 -50zM174 184q0 -37 33 -67.5t74 -30.5q37 0 70.5 29.5t33.5 68.5v666q0 33 -33 65.5t-71 32.5 q-41 0 -74 -28.5t-33 -69.5v-666z" />
<glyph unicode="&#xf3;" horiz-adv-x="565" d="M70 184v666q0 78 58 142.5t153 64.5q84 0 145 -59.5t61 -147.5v-666q0 -78 -58 -142.5t-148 -64.5q-84 0 -147.5 59.5t-63.5 147.5zM174 184q0 -37 33 -67.5t74 -30.5q37 0 70.5 29.5t33.5 68.5v666q0 33 -33 65.5t-71 32.5q-41 0 -74 -28.5t-33 -69.5v-666zM195 1180 l159 159l47 -51l-153 -158z" />
<glyph unicode="&#xf4;" horiz-adv-x="565" d="M70 184v666q0 78 58 142.5t153 64.5q84 0 145 -59.5t61 -147.5v-666q0 -78 -58 -142.5t-148 -64.5q-84 0 -147.5 59.5t-63.5 147.5zM119 1176l160 165l165 -165l-53 -50l-112 111l-111 -111zM174 184q0 -37 33 -67.5t74 -30.5q37 0 70.5 29.5t33.5 68.5v666 q0 33 -33 65.5t-71 32.5q-41 0 -74 -28.5t-33 -69.5v-666z" />
<glyph unicode="&#xf5;" horiz-adv-x="565" d="M70 184v666q0 78 58 142.5t153 64.5q84 0 145 -59.5t61 -147.5v-666q0 -78 -58 -142.5t-148 -64.5q-84 0 -147.5 59.5t-63.5 147.5zM88 1188l129 129l107 -100l79 77l54 -53l-133 -127l-107 100l-76 -75zM174 184q0 -37 33 -67.5t74 -30.5q37 0 70.5 29.5t33.5 68.5v666 q0 33 -33 65.5t-71 32.5q-41 0 -74 -28.5t-33 -69.5v-666z" />
<glyph unicode="&#xf6;" horiz-adv-x="565" d="M70 184v666q0 78 58 142.5t153 64.5q84 0 145 -59.5t61 -147.5v-666q0 -78 -58 -142.5t-148 -64.5q-84 0 -147.5 59.5t-63.5 147.5zM133 1116v107h84v-107h-84zM174 184q0 -37 33 -67.5t74 -30.5q37 0 70.5 29.5t33.5 68.5v666q0 33 -33 65.5t-71 32.5q-41 0 -74 -28.5 t-33 -69.5v-666zM338 1116v107h88v-107h-88z" />
<glyph unicode="&#xf7;" horiz-adv-x="536" d="M84 592v100h352v-100h-352zM205 418v106h108v-106h-108zM205 768v106h108v-106h-108z" />
<glyph unicode="&#xf8;" horiz-adv-x="565" d="M-23 258l127 129v463q0 86 58.5 146.5t150.5 60.5q84 0 147.5 -59.5t63.5 -147.5v-47l84 80l56 -60l-140 -141v-498q0 -80 -59 -143.5t-152 -63.5q-88 0 -148.5 58.5t-60.5 148.5v84l-67 -69zM209 184q0 -39 31.5 -68.5t72.5 -29.5q39 0 70 26.5t31 71.5v394l-205 -201 v-193zM209 492l205 200v158q0 35 -27 63q-33 35 -80 35q-41 0 -69.5 -30.5t-28.5 -67.5v-358z" />
<glyph unicode="&#xf9;" horiz-adv-x="561" d="M70 184v852h104v-852q0 -37 33 -67.5t74 -30.5q37 0 70.5 32t33.5 66v852h102v-858q0 -86 -61 -143.5t-145 -57.5q-82 0 -146.5 58.5t-64.5 148.5zM174 1276l53 51l154 -160l-49 -49z" />
<glyph unicode="&#xfa;" horiz-adv-x="561" d="M70 184v852h104v-852q0 -37 33 -67.5t74 -30.5q37 0 70.5 32t33.5 66v852h102v-858q0 -86 -61 -143.5t-145 -57.5q-82 0 -146.5 58.5t-64.5 148.5zM182 1174l160 159l47 -51l-153 -158z" />
<glyph unicode="&#xfb;" horiz-adv-x="561" d="M70 184v852h104v-852q0 -37 33 -67.5t74 -30.5q37 0 70.5 32t33.5 66v852h102v-858q0 -86 -61 -143.5t-145 -57.5q-82 0 -146.5 58.5t-64.5 148.5zM117 1171l159 166l166 -166l-53 -49l-113 111l-110 -111z" />
<glyph unicode="&#xfc;" horiz-adv-x="561" d="M70 184v852h104v-852q0 -37 33 -67.5t74 -30.5q37 0 70.5 32t33.5 66v852h102v-858q0 -86 -61 -143.5t-145 -57.5q-82 0 -146.5 58.5t-64.5 148.5zM131 1118v107h84v-107h-84zM336 1118v107h88v-107h-88z" />
<glyph unicode="&#xfd;" horiz-adv-x="632" d="M98 332v704h105v-704q0 -74 65.5 -150t139.5 -76v930h110v-1140q0 -82 -60.5 -144.5t-152.5 -62.5h-96v108h96q35 0 69 28t34 71v94q-123 20 -211 106q-99 97 -99 236zM209 1167l160 160l47 -51l-154 -158z" />
<glyph unicode="&#xfe;" horiz-adv-x="653" d="M129 -309v1757h107v-412h104q80 0 144.5 -58t64.5 -151v-622q0 -88 -63.5 -147.5t-145.5 -59.5h-104v-307h-107zM236 106h104q41 0 68.5 36t27.5 63v622q0 43 -27.5 71t-68.5 28h-104v-820z" />
<glyph unicode="&#xff;" horiz-adv-x="632" d="M98 332v704h105v-704q0 -74 65.5 -150t139.5 -76v930h110v-1140q0 -82 -60.5 -144.5t-152.5 -62.5h-96v108h96q35 0 69 28t34 71v94q-123 20 -211 106q-99 97 -99 236zM158 1126v107h84v-107h-84zM362 1126v107h89v-107h-89z" />
<glyph unicode="&#x152;" horiz-adv-x="858" d="M104 184v1078q0 82 57.5 145t151.5 63q25 0 60 -10q12 -2 33 -12h323v-105h-205v-514h205v-108h-205v-615h205v-106h-323q-18 -8 -29 -10q-39 -12 -64 -13q-88 0 -148.5 58.5t-60.5 148.5zM209 184q0 -39 31.5 -68.5t72.5 -29.5q39 0 70 26.5t31 71.5v1078q0 35 -31 69.5 t-70 34.5q-33 0 -68.5 -36t-35.5 -68v-1078z" />
<glyph unicode="&#x153;" horiz-adv-x="962" d="M104 184v666q0 84 57.5 145.5t151.5 61.5q88 0 158 -70q63 70 158 70q82 0 145.5 -57.5t63.5 -149.5v-438h-314v-228q0 -39 32 -68.5t73 -29.5q37 0 67.5 30.5t30.5 67.5v56h111v-56q0 -82 -60.5 -144.5t-148.5 -62.5q-51 0 -82 14.5t-76 53.5q-72 -68 -158 -68 q-82 0 -145.5 57.5t-63.5 149.5zM209 184q0 -39 31.5 -68.5t72.5 -29.5q39 0 70 26.5t31 71.5v666q0 37 -33 67.5t-68 30.5q-37 0 -70.5 -29.5t-33.5 -68.5v-666zM524 520h203v330q0 37 -32.5 67.5t-65.5 30.5q-41 0 -73 -29.5t-32 -68.5v-330z" />
<glyph unicode="&#x178;" horiz-adv-x="589" d="M74 1018v430h104v-393l107 -170l102 164v399h105v-430l-154 -258v-760h-111v758zM143 1579v111h88v-111h-88zM356 1579v111h93v-111h-93z" />
<glyph unicode="&#x2c6;" horiz-adv-x="858" d="M256 1450l160 166l166 -166l-54 -49l-112 110l-111 -110z" />
<glyph unicode="&#x2dc;" horiz-adv-x="858" d="M287 1473l129 129l106 -101l80 78l53 -53l-133 -127l-106 100l-76 -76z" />
<glyph unicode="&#x2013;" horiz-adv-x="614" d="M-2 569v103h577v-103h-577z" />
<glyph unicode="&#x2014;" horiz-adv-x="720" d="M-2 569v103h678v-103h-678z" />
<glyph unicode="&#x2018;" horiz-adv-x="485" d="M133 1448h199v-102l47 -78l-90 -58z" />
<glyph unicode="&#x2019;" horiz-adv-x="485" d="M98 1268l45 75l-8 3v102h205l-162 -238z" />
<glyph unicode="&#x201a;" horiz-adv-x="485" d="M98 -78l45 76l-8 2v104h205l-162 -237z" />
<glyph unicode="&#x201c;" horiz-adv-x="694" d="M61 1448h199v-102l-6 -3l51 -75l-84 -58zM377 1448h198v-102l-6 -3l52 -75l-86 -58z" />
<glyph unicode="&#x201d;" horiz-adv-x="694" d="M61 1268l52 75l-9 3v102h199l-160 -238zM377 1268l45 75l-8 3v102h204l-159 -238z" />
<glyph unicode="&#x201e;" horiz-adv-x="694" d="M61 -78l52 76l-9 2v104h199l-160 -237zM377 -78l45 76l-8 2v104h204l-159 -237z" />
<glyph unicode="&#x2022;" horiz-adv-x="780" d="M150 735.5q0 98.5 70.5 169t168.5 70.5t169 -70.5t71 -169t-70 -168t-170 -69.5q-96 0 -167.5 69.5t-71.5 168z" />
<glyph unicode="&#x2026;" horiz-adv-x="1449" d="M154 0v106h106v-106h-106zM627 0v106h102v-106h-102zM1098 0v106h100v-106h-100z" />
<glyph unicode="&#x2039;" horiz-adv-x="368" d="M51 623l189 186l65 -64l-125 -122l125 -127l-65 -66z" />
<glyph unicode="&#x203a;" horiz-adv-x="368" d="M51 496l121 127l-121 122l64 64l190 -186l-190 -193z" />
<glyph unicode="&#x2122;" horiz-adv-x="837" d="M82 1364v84h250v-84h-82v-676h-92v676h-76zM408 688v760h92v-80l55 -149l63 149v80h87v-760h-87v428l-63 -145l-55 145v-428h-92z" />
<glyph unicode="&#xe000;" horiz-adv-x="1035" d="M0 1035h1035v-1035h-1035v1035z" />
<glyph unicode="&#xfb01;" horiz-adv-x="770" d="M29 926v110h104v205q0 90 58.5 148.5t152.5 58.5h102v-105h-102q-35 0 -69.5 -32.5t-34.5 -69.5v-205h104v-110h-104v-926h-107v926h-104zM512 926v110h154v-1036h-107v926h-47zM559 1231v108h107v-108h-107z" />
<glyph unicode="&#xfb02;" horiz-adv-x="823" d="M29 926v110h104v205q0 90 58.5 148.5t152.5 58.5h102v-105h-102q-35 0 -69.5 -32.5t-34.5 -69.5v-205h104v-110h-104v-926h-107v926h-104zM504 195v1253h102v-1253q0 -33 34 -65t73 -32h53v-110h-53q-82 0 -142 51q-67 60 -67 156z" />
<glyph unicode="&#xfb03;" horiz-adv-x="1183" d="M29 926v110h104v205q0 90 58.5 148.5t152.5 58.5h102v-105h-102q-35 0 -69.5 -32.5t-34.5 -69.5v-205h104v-110h-104v-926h-107v926h-104zM442 926v110h105v205q0 90 58.5 148.5t152.5 58.5h102v-105h-102q-35 0 -70 -32.5t-35 -69.5v-205h105v-110h-105v-926h-106v926 h-105zM926 926v110h153v-1036h-106v926h-47zM973 1231v108h106v-108h-106z" />
<glyph unicode="&#xfb04;" horiz-adv-x="1236" d="M29 926v110h104v205q0 90 58.5 148.5t152.5 58.5h102v-105h-102q-35 0 -69.5 -32.5t-34.5 -69.5v-205h104v-110h-104v-926h-107v926h-104zM442 926v110h105v205q0 90 58.5 148.5t152.5 58.5h102v-105h-102q-35 0 -70 -32.5t-35 -69.5v-205h105v-110h-105v-926h-106v926 h-105zM918 195v1253h102v-1253q0 -33 33.5 -65t72.5 -32h54v-110h-54q-82 0 -141 51q-67 60 -67 156z" />
</font>
</defs>
</svg>
